<?xml version="1.0" standalone="no"?>
<!DOCTYPE svg PUBLIC "-//W3C//DTD SVG 20010904//EN"
 "http://www.w3.org/TR/2001/REC-SVG-20010904/DTD/svg10.dtd">
<svg version="1.0" xmlns="http://www.w3.org/2000/svg"
 width="416.000000pt" height="441.000000pt" viewBox="0 0 416.000000 441.000000"
 preserveAspectRatio="xMidYMid meet">

<g transform="translate(0.000000,441.000000) scale(0.100000,-0.100000)"
fill="#000000" stroke="none">
<path d="M1890 2510 l0 -90 -60 0 -60 0 0 -85 0 -84 58 -3 57 -3 5 -185 c6
-212 15 -242 89 -295 40 -28 49 -30 134 -30 55 0 101 5 114 12 l22 13 -25 74
-25 75 -30 -11 c-38 -13 -82 4 -98 38 -6 15 -11 83 -11 169 l0 145 80 0 80 0
0 85 0 85 -80 0 -80 0 0 90 0 90 -85 0 -85 0 0 -90z"/>
<path d="M690 2411 c-58 -18 -144 -74 -163 -107 -5 -9 11 -25 53 -54 l60 -41
41 33 c38 31 46 33 116 33 73 0 75 -1 109 -37 22 -25 34 -48 34 -67 l0 -29
-51 15 c-72 21 -210 14 -264 -14 -140 -74 -167 -236 -56 -343 90 -88 233 -94
338 -14 l33 25 0 -40 0 -41 85 0 85 0 0 238 c0 196 -3 247 -17 287 -23 67 -86
129 -154 149 -55 17 -204 20 -249 7z m219 -382 c35 -12 39 -34 16 -78 -38 -74
-125 -107 -192 -74 -52 25 -68 61 -49 108 8 19 16 35 18 35 2 0 21 7 43 15 42
16 108 13 164 -6z"/>
<path d="M1250 2075 l0 -345 84 0 84 0 6 188 c4 103 9 198 12 212 15 83 96
137 191 127 l53 -6 0 85 0 84 -55 0 c-69 0 -119 -20 -167 -68 l-38 -36 0 52 0
52 -85 0 -85 0 0 -345z"/>
<path d="M2350 2075 l0 -345 85 0 85 0 0 83 c0 95 17 139 70 175 62 42 162 23
191 -37 7 -14 14 -70 17 -123 l4 -98 85 0 85 0 -4 138 c-3 117 -7 143 -25 179
-29 53 -83 98 -139 113 -63 18 -179 8 -231 -18 -23 -12 -45 -22 -48 -22 -3 0
-5 68 -5 150 l0 150 -85 0 -85 0 0 -345z"/>
<path d="M3110 2045 l0 -315 85 0 85 0 0 308 0 308 -64 -4 c-36 -2 -72 1 -85
7 l-21 12 0 -316z"/>
</g>
</svg>
